<svg width="240" height="240" viewBox="0 0 74 74" xmlns="http://www.w3.org/2000/svg" xmlns:xlink="http://www.w3.org/1999/xlink"><defs><ellipse id="a" cx="36" cy="36" rx="35.897" ry="36"/></defs><g transform="translate(1 1)" fill="none" fill-rule="evenodd"><mask id="b" fill="#fff"><use xlink:href="#a"/></mask><use fill="#FFF" xlink:href="#a"/><ellipse stroke="#979797" cx="36" cy="36" rx="36.397" ry="36.5"/><g mask="url(#b)"><g transform="translate(5 14)"><rect fill="#B50000" x="17.615" y="38.656" width="28.184" height="2.481" rx="1.24"/><rect fill="#C00" x="17.615" y="38.656" width="23.832" height="2.481" rx="1.24"/><path d="M15.75 42.997c0-.456.378-.826.832-.826h30.043c.46 0 .832.366.832.826V62.43c0 .457-.255 1.09-.577 1.41 0 0-7.35 7.895-15.276 7.895-7.927 0-15.277-7.895-15.277-7.895-.318-.322-.577-.95-.577-1.41V42.997Z" fill="#A5A5A5"/><path d="M15.75 41.55c0-.456.378-.826.832-.826h30.043c.46 0 .832.365.832.826v19.432c0 .457-.255 1.09-.577 1.41 0 0-7.35 7.895-15.276 7.895-7.927 0-15.277-7.895-15.277-7.895-.318-.322-.577-.95-.577-1.41V41.55Z" fill="#C6C6C6"/><path d="M31.5 40.724h15.125c.46 0 .832.365.832.826v19.432c0 .457-.255 1.09-.577 1.41 0 0-7.35 7.895-15.276 7.895H31.5V40.724Z" fill="#B1B1B1"/><path d="M15.75 41.55c0-.456.377-.826.828-.826h22.398a4.959 4.959 0 0 1 4.958 4.96v15.73c0 2.74-2.004 5.939-4.528 6.963 0 0-2.518 1.91-9.564 1.91S15.75 61.81 15.75 61.81V41.55Z" fill="#E3E5E1" style="mix-blend-mode:soft-light" opacity=".4"/><path d="M29.86 42.17H21.02c-2.105 0-3.818 1.695-3.818 3.777v.795a.6.6 0 0 0 .603.597.6.6 0 0 0 .602-.597v-.795c0-1.425 1.172-2.584 2.613-2.584h8.842a.6.6 0 0 0 .603-.596.6.6 0 0 0-.603-.596ZM32.368 42.17h-.078c-.322 0-.583.278-.583.62 0 .343.261.62.583.62h.078c.322 0 .583-.277.583-.62 0-.342-.261-.62-.583-.62Z" fill="#FFF"/><g transform="translate(0 40.517)"><ellipse fill="#C4C4C4" transform="rotate(29 7.714 11.26)" cx="7.714" cy="11.26" rx="3.523" ry="9.302"/><ellipse fill="#DADADA" transform="rotate(30 8.128 10.02)" cx="8.128" cy="10.02" rx="3.523" ry="9.302"/><path d="M11.99 2.987a1.577 1.577 0 0 0-1.212-.033.43.43 0 0 0-.248.558.433.433 0 0 0 .558.248.717.717 0 0 1 .552.015c.176.078.31.22.38.4a.432.432 0 0 0 .807-.308 1.577 1.577 0 0 0-.836-.88Z" fill="#FFF"/><ellipse fill="#DFDFDF" style="mix-blend-mode:lighten" opacity=".7" cx="11.398" cy="4.341" rx="4.352" ry="4.341"/></g><g transform="matrix(-1 0 0 1 63 40.724)"><ellipse fill="#B6B6B6" transform="rotate(29 7.714 11.053)" cx="7.714" cy="11.053" rx="3.523" ry="9.302"/><ellipse fill="#D3D3D3" transform="rotate(30 8.128 9.813)" cx="8.128" cy="9.813" rx="3.523" ry="9.302"/></g><g transform="translate(1.243)"><rect fill="#A5A5A5" y="1.447" width="60.928" height="37.623" rx="18.811"/><rect fill="#C6C6C6" width="60.928" height="37.623" rx="18.811"/><rect fill="#17152E" x="7.046" y="5.995" width="46.836" height="25.426" rx="12.713"/><rect fill="#292345" x="7.046" y="8.889" width="46.836" height="22.532" rx="11.266"/><g transform="translate(38.753 14.884)"><ellipse fill="#577EEA" cx="3.834" cy="3.618" rx="3.627" ry="3.618"/><path d="M3.192.038A3.725 3.725 0 0 0 0 3.721c0 2.055 1.67 3.72 3.73 3.72A3.73 3.73 0 0 0 7.377 4.51 3.726 3.726 0 0 1 3.193.038Z" fill="#476FFD"/><path d="M4.352 6.655a.293.293 0 0 1-.294.293 3.23 3.23 0 0 1-3.23-3.221.293.293 0 0 1 .588 0 2.642 2.642 0 0 0 2.642 2.635c.163 0 .294.131.294.293ZM1.296 2.691h.02a.293.293 0 0 0 .293-.273l.002-.039a.293.293 0 0 0-.586-.038l-.002.039c-.011.16.111.3.273.311Z" fill="#FFF"/></g><g transform="translate(14.507 15.09)"><ellipse fill="#577EEA" cx="3.834" cy="3.618" rx="3.627" ry="3.618"/><path d="M3.192.038A3.725 3.725 0 0 0 0 3.721c0 2.055 1.67 3.72 3.73 3.72A3.73 3.73 0 0 0 7.377 4.51 3.726 3.726 0 0 1 3.193.038Z" fill="#476FFD"/><path d="M4.352 6.655a.293.293 0 0 1-.294.293 3.23 3.23 0 0 1-3.23-3.221.293.293 0 0 1 .588 0 2.642 2.642 0 0 0 2.642 2.635c.163 0 .294.131.294.293ZM1.296 2.691h.02a.293.293 0 0 0 .293-.273l.002-.039a.293.293 0 0 0-.586-.038l-.002.039c-.011.16.111.3.273.311Z" fill="#FFF"/></g><path d="M26.734 24.806c0 2.055 1.67 3.721 3.73 3.721s3.73-1.666 3.73-3.72h-7.46Z" fill="#FFF"/><rect fill="#E3E5E1" style="mix-blend-mode:soft-light" opacity=".4" width="49.53" height="37.623" rx="17.778"/></g><path d="m57.675 56.696-.692-.919a.432.432 0 0 0-.691.52l.692.92c.62.823 1.797.987 2.622.365a.432.432 0 1 0-.52-.69 1.009 1.009 0 0 1-1.411-.196Z" fill="#F3F3F3"/><path d="M9.47 7.235c0 .343-.21.62-.47.62H3.994c-.26 0-.47-.277-.47-.62 0-.342.21-.62.47-.62H9c.26 0 .47.278.47.62Zm1.933-.62h-.082a.619.619 0 0 0-.617.62c0 .343.276.62.617.62h.082c.34 0 .617-.277.617-.62a.618.618 0 0 0-.617-.62Z" fill="#FFF"/><path d="m25.556 41.274 1.121-1.39-1.121-1.39a.412.412 0 0 1 .324-.67h5.783v4.12H25.88a.412.412 0 0 1-.324-.67Z" fill="#B50000"/><path d="M31.663 39.875h-4.986l-1.121-1.39a.412.412 0 0 1 .324-.67h5.783v2.06Z" fill="#C00"/><path d="m36.666 39.884 1.122-1.39a.412.412 0 0 0-.325-.67h-5.782v4.12h5.782c.349 0 .542-.4.325-.67l-1.122-1.39Z" fill="#8E0E0E"/><path d="M31.68 39.875h4.986l1.122-1.39a.412.412 0 0 0-.325-.67h-5.782v2.06Z" fill="#B50000"/><path d="M31.56 42.584c-1.472 0-2.665-1.203-2.665-2.687 0-1.485 1.193-2.688 2.664-2.688 1.472 0 2.665 1.203 2.665 2.688 0 1.484-1.193 2.687-2.665 2.687Z" fill="#FF8B00"/><path d="M31.56 41.987a1.933 1.933 0 0 1-1.925-1.941c0-1.072.861-1.94 1.924-1.94s1.925.868 1.925 1.94-.862 1.94-1.925 1.94Z" fill="#FF5200"/><path d="M31.56 41.39a1.338 1.338 0 0 1-1.333-1.344c0-.742.596-1.344 1.332-1.344.736 0 1.332.602 1.332 1.344 0 .742-.596 1.344-1.332 1.344Z" fill="#FFA800"/><path d="M31.609 38.702c.202 0 .395.045.568.124.078.175.122.369.122.573 0 .77-.618 1.393-1.381 1.393-.203 0-.395-.044-.569-.123a1.398 1.398 0 0 1-.122-.573c0-.77.619-1.394 1.382-1.394Z" fill="#FFC02C"/></g></g><path fill="#3C3559" mask="url(#b)" d="M19 27h12v1H19z"><animate dur="4s" attributeName="height" repeatCount="indefinite" values="1; 1; 1; 1; 12; 1; 12" keyTimes="0; 0.25; 0.5; 0.85; 0.9; 0.95; 1"/></path><path fill="#3C3559" mask="url(#b)" d="M42 27h12v1H42z"><animate dur="4s" attributeName="height" repeatCount="indefinite" values="1; 1; 1; 1; 12; 1; 12" keyTimes="0; 0.25; 0.5; 0.85; 0.9; 0.95; 1"/></path><path fill="#3C3559" mask="url(#b)" d="M19 37h12v1H19z"><animate dur="4s" attributeName="height" repeatCount="indefinite" values="1; 1; 1; 1; 6; 1; 6" keyTimes="0; 0.25; 0.5; 0.85; 0.9; 0.95; 1"/><animate dur="4s" attributeName="y" repeatCount="indefinite" values="37; 37; 37; 37; 31; 37; 31" keyTimes="0; 0.25; 0.5; 0.85; 0.9; 0.95; 1"/></path><path fill="#3C3559" mask="url(#b)" d="M42 37h12v1H42z"><animate dur="4s" attributeName="height" repeatCount="indefinite" values="1; 1; 1; 1; 6; 1; 6" keyTimes="0; 0.25; 0.5; 0.85; 0.9; 0.95; 1"/><animate dur="4s" attributeName="y" repeatCount="indefinite" values="37; 37; 37; 37; 31; 37; 31" keyTimes="0; 0.25; 0.5; 0.85; 0.9; 0.95; 1"/></path></g></svg>